# xmcd CD database file
#
# Track frame offsets:
#	150
#	13729
#	38996
#	53265
#	67981
#	82345
#	100670
#	120283
#	135206
#	154218
#	172925
#	190339
#	202435
#	218708
#
# Disc length: 3688 seconds
#
# Revision: 0
# Processed by: cddbd v1.5.2PL0 Copyright (c) Steve Scherf et al.
# Submitted via: CDex 1.51
#
DISCID=b80e660e
DTITLE=Oscar Peterson - Oscar Peterson plays the Harry Warren and Vincent Youmans songbook CD2
DYEAR=2011
DGENRE=Jazz
TTITLE0=Without a Song
TTITLE1=I want to be Happy
TTITLE2=Nagasaki
TTITLE3=Serenade in Blue
TTITLE4=Lullaby of Broadway
TTITLE5=I found a Million Dollar Baby
TTITLE6=Would you like to take a walk
TTITLE7=I´ll string along with you
TTITLE8=I only have eyes for you
TTITLE9=You must have been a beautiful baby
TTITLE10=You´re getting to be a habit with me
TTITLE11=Chattanooga Choo Choo
TTITLE12=You´re my Everything
TTITLE13=Tea for Two
EXTD=YEAR: 2011
EXTT0=
EXTT1=
EXTT2=
EXTT3=
EXTT4=
EXTT5=
EXTT6=
EXTT7=
EXTT8=
EXTT9=
EXTT10=
EXTT11=
EXTT12=
EXTT13=
PLAYORDER=
